<svg width="24" height="24" viewBox="0 0 24 24" fill="none" xmlns="http://www.w3.org/2000/svg">
<g clip-path="url(#clip0_62_2599)">
<path d="M-0.25 1.5C-0.448912 1.5 -0.639678 1.57902 -0.78033 1.71967C-0.920982 1.86032 -1 2.05109 -1 2.25C-1 2.44891 -0.920982 2.63968 -0.78033 2.78033C-0.639678 2.92098 -0.448912 3 -0.25 3H1.415L2.0165 5.4105L4.2635 17.388C4.29567 17.5599 4.38688 17.7151 4.52137 17.8268C4.65585 17.9386 4.82515 17.9998 5 18H6.5C5.70435 18 4.94129 18.3161 4.37868 18.8787C3.81607 19.4413 3.5 20.2044 3.5 21C3.5 21.7956 3.81607 22.5587 4.37868 23.1213C4.94129 23.6839 5.70435 24 6.5 24C7.29565 24 8.05871 23.6839 8.62132 23.1213C9.18393 22.5587 9.5 21.7956 9.5 21C9.5 20.2044 9.18393 19.4413 8.62132 18.8787C8.05871 18.3161 7.29565 18 6.5 18H17C16.2044 18 15.4413 18.3161 14.8787 18.8787C14.3161 19.4413 14 20.2044 14 21C14 21.7956 14.3161 22.5587 14.8787 23.1213C15.4413 23.6839 16.2044 24 17 24C17.7957 24 18.5587 23.6839 19.1213 23.1213C19.6839 22.5587 20 21.7956 20 21C20 20.2044 19.6839 19.4413 19.1213 18.8787C18.5587 18.3161 17.7957 18 17 18H18.5C18.6749 17.9998 18.8442 17.9386 18.9786 17.8268C19.1131 17.7151 19.2043 17.5599 19.2365 17.388L21.4865 5.388C21.5068 5.27976 21.5029 5.16838 21.4753 5.06178C21.4477 4.95518 21.3969 4.85597 21.3266 4.77121C21.2563 4.68644 21.1682 4.6182 21.0685 4.57133C20.9689 4.52445 20.8601 4.5001 20.75 4.5H3.335L2.7275 2.0685C2.68701 1.90618 2.59342 1.76205 2.4616 1.65904C2.32978 1.55603 2.1673 1.50005 2 1.5H-0.25ZM8 21C8 21.3978 7.84196 21.7794 7.56066 22.0607C7.27936 22.342 6.89783 22.5 6.5 22.5C6.10218 22.5 5.72065 22.342 5.43934 22.0607C5.15804 21.7794 5 21.3978 5 21C5 20.6022 5.15804 20.2206 5.43934 19.9393C5.72065 19.658 6.10218 19.5 6.5 19.5C6.89783 19.5 7.27936 19.658 7.56066 19.9393C7.84196 20.2206 8 20.6022 8 21ZM18.5 21C18.5 21.3978 18.342 21.7794 18.0607 22.0607C17.7794 22.342 17.3978 22.5 17 22.5C16.6022 22.5 16.2206 22.342 15.9393 22.0607C15.658 21.7794 15.5 21.3978 15.5 21C15.5 20.6022 15.658 20.2206 15.9393 19.9393C16.2206 19.658 16.6022 19.5 17 19.5C17.3978 19.5 17.7794 19.658 18.0607 19.9393C18.342 20.2206 18.5 20.6022 18.5 21ZM12.5 8.25V10.5H14.75C14.9489 10.5 15.1397 10.579 15.2803 10.7197C15.421 10.8603 15.5 11.0511 15.5 11.25C15.5 11.4489 15.421 11.6397 15.2803 11.7803C15.1397 11.921 14.9489 12 14.75 12H12.5V14.25C12.5 14.4489 12.421 14.6397 12.2803 14.7803C12.1397 14.921 11.9489 15 11.75 15C11.5511 15 11.3603 14.921 11.2197 14.7803C11.079 14.6397 11 14.4489 11 14.25V12H8.75C8.55109 12 8.36032 11.921 8.21967 11.7803C8.07902 11.6397 8 11.4489 8 11.25C8 11.0511 8.07902 10.8603 8.21967 10.7197C8.36032 10.579 8.55109 10.5 8.75 10.5H11V8.25C11 8.05109 11.079 7.86032 11.2197 7.71967C11.3603 7.57902 11.5511 7.5 11.75 7.5C11.9489 7.5 12.1397 7.57902 12.2803 7.71967C12.421 7.86032 12.5 8.05109 12.5 8.25Z" fill="#6A0F65"/>
</g>
<defs>
<clipPath id="clip0_62_2599">
<rect width="24" height="24" fill="white"/>
</clipPath>
</defs>
</svg>
