<svg width="24" height="24" viewBox="0 0 24 24" fill="none" xmlns="http://www.w3.org/2000/svg">
<path d="M11.0001 22.2455C16.5951 22.2455 21.2455 17.6049 21.2455 12.0001C21.2455 6.40507 16.6049 1.75464 11.0099 1.75464C10.4776 1.75464 10.2166 2.07607 10.2166 2.59807V6.4955C10.2166 6.9275 10.5081 7.27892 10.9495 7.27892C11.3918 7.27892 11.6931 6.9275 11.6931 6.4955V3.49207C16.1129 3.8435 19.5278 7.50007 19.5278 12.0001C19.5324 13.1217 19.3151 14.2332 18.8883 15.2705C18.4615 16.3078 17.8337 17.2504 17.041 18.0441C16.2484 18.8377 15.3065 19.4666 14.2697 19.8946C13.233 20.3227 12.1217 20.5414 11.0001 20.5381C6.25878 20.5381 2.45221 16.7409 2.46207 12.0001C2.47192 9.89064 3.22535 7.97235 4.48107 6.4955C4.79221 6.10378 4.81235 5.63192 4.48107 5.28007C4.14935 4.91878 3.58707 4.94878 3.22535 5.40092C1.6885 7.1885 0.754639 9.49892 0.754639 12.0001C0.754639 17.6049 5.39521 22.2455 11.0001 22.2455ZM12.6072 13.5468C13.4005 12.7231 13.2402 11.5981 12.2858 10.9355L6.9715 7.22878C6.46964 6.87735 5.94721 7.39978 6.29864 7.90164L10.0054 13.2155C10.6684 14.1699 11.7934 14.3405 12.6072 13.5468Z" fill="#6A0F65"/>
</svg>
