<svg width="327" height="97" viewBox="0 0 327 97" fill="none" xmlns="http://www.w3.org/2000/svg">
<path d="M1.7599 19.5V5.64H10.0199L9.6799 7.98H5.0399V11.66H9.0799V14H5.0399V19.5H1.7599ZM18.6946 16.42C18.6946 16.82 18.7479 17.1133 18.8546 17.3C18.9746 17.4867 19.1613 17.6267 19.4146 17.72L18.7546 19.78C18.1013 19.7267 17.5679 19.5867 17.1546 19.36C16.7413 19.12 16.4213 18.7467 16.1946 18.24C15.5013 19.3067 14.4346 19.84 12.9946 19.84C11.9413 19.84 11.1013 19.5333 10.4746 18.92C9.84792 18.3067 9.53459 17.5067 9.53459 16.52C9.53459 15.36 9.96125 14.4733 10.8146 13.86C11.6679 13.2467 12.9013 12.94 14.5146 12.94H15.5946V12.48C15.5946 11.8533 15.4613 11.4267 15.1946 11.2C14.9279 10.96 14.4613 10.84 13.7946 10.84C13.4479 10.84 13.0279 10.8933 12.5346 11C12.0413 11.0933 11.5346 11.2267 11.0146 11.4L10.2946 9.32C10.9613 9.06667 11.6413 8.87333 12.3346 8.74C13.0413 8.60667 13.6946 8.54 14.2946 8.54C15.8146 8.54 16.9279 8.85333 17.6346 9.48C18.3413 10.1067 18.6946 11.0467 18.6946 12.3V16.42ZM13.9146 17.58C14.6346 17.58 15.1946 17.24 15.5946 16.56V14.68H14.8146C14.0946 14.68 13.5546 14.8067 13.1946 15.06C12.8479 15.3133 12.6746 15.7067 12.6746 16.24C12.6746 16.6667 12.7813 17 12.9946 17.24C13.2213 17.4667 13.5279 17.58 13.9146 17.58ZM23.8363 19.84C22.9163 19.84 22.1963 19.58 21.6763 19.06C21.1696 18.5267 20.9163 17.7733 20.9163 16.8V4.66L24.0763 4.32V16.68C24.0763 17.12 24.2563 17.34 24.6163 17.34C24.803 17.34 24.9763 17.3067 25.1363 17.24L25.7563 19.48C25.183 19.72 24.543 19.84 23.8363 19.84ZM36.1162 13.98C36.1162 14.42 36.0962 14.8 36.0562 15.12H29.4761C29.5828 16.0133 29.8362 16.64 30.2362 17C30.6362 17.36 31.1895 17.54 31.8962 17.54C32.3228 17.54 32.7362 17.4667 33.1362 17.32C33.5362 17.16 33.9695 16.92 34.4362 16.6L35.7362 18.36C34.4962 19.3467 33.1162 19.84 31.5962 19.84C29.8762 19.84 28.5561 19.3333 27.6361 18.32C26.7161 17.3067 26.2561 15.9467 26.2561 14.24C26.2561 13.16 26.4495 12.1933 26.8361 11.34C27.2228 10.4733 27.7895 9.79333 28.5362 9.3C29.2828 8.79333 30.1762 8.54 31.2161 8.54C32.7495 8.54 33.9495 9.02 34.8162 9.98C35.6828 10.94 36.1162 12.2733 36.1162 13.98ZM33.0161 13.08C32.9895 11.4533 32.4162 10.64 31.2962 10.64C30.7495 10.64 30.3228 10.84 30.0162 11.24C29.7228 11.64 29.5428 12.3 29.4761 13.22H33.0161V13.08ZM47.2374 8.54C47.9707 8.54 48.6307 8.64667 49.2174 8.86C49.8041 9.07333 50.3574 9.4 50.8774 9.84L49.5174 11.72C48.8507 11.2133 48.1774 10.96 47.4974 10.96C46.7907 10.96 46.2574 11.22 45.8974 11.74C45.5374 12.26 45.3574 13.1 45.3574 14.26C45.3574 15.38 45.5374 16.1733 45.8974 16.64C46.2574 17.1067 46.7774 17.34 47.4574 17.34C47.8174 17.34 48.1441 17.2867 48.4374 17.18C48.7307 17.06 49.0841 16.8733 49.4974 16.62L50.8774 18.58C49.8241 19.42 48.6307 19.84 47.2974 19.84C46.2174 19.84 45.2841 19.6133 44.4974 19.16C43.7107 18.6933 43.1041 18.0467 42.6774 17.22C42.2507 16.38 42.0374 15.4 42.0374 14.28C42.0374 13.16 42.2507 12.1667 42.6774 11.3C43.1041 10.4333 43.7107 9.76 44.4974 9.28C45.2841 8.78667 46.1974 8.54 47.2374 8.54ZM56.4171 8.54C58.0438 8.54 59.3171 9.04 60.2371 10.04C61.1571 11.0267 61.6171 12.4133 61.6171 14.2C61.6171 15.3333 61.4038 16.3267 60.9771 17.18C60.5638 18.02 59.9638 18.6733 59.1771 19.14C58.4038 19.6067 57.4838 19.84 56.4171 19.84C54.8038 19.84 53.5304 19.3467 52.5971 18.36C51.6771 17.36 51.2171 15.9667 51.2171 14.18C51.2171 13.0467 51.4238 12.06 51.8371 11.22C52.2638 10.3667 52.8638 9.70667 53.6371 9.24C54.4238 8.77333 55.3504 8.54 56.4171 8.54ZM56.4171 10.86C55.7771 10.86 55.2971 11.1333 54.9771 11.68C54.6571 12.2133 54.4971 13.0467 54.4971 14.18C54.4971 15.34 54.6504 16.1867 54.9571 16.72C55.2771 17.2533 55.7638 17.52 56.4171 17.52C57.0571 17.52 57.5371 17.2533 57.8571 16.72C58.1771 16.1733 58.3371 15.3333 58.3371 14.2C58.3371 13.04 58.1771 12.1933 57.8571 11.66C57.5504 11.1267 57.0704 10.86 56.4171 10.86ZM69.7168 8.54C70.6368 8.54 71.3568 8.82 71.8768 9.38C72.3968 9.94 72.6568 10.7267 72.6568 11.74V19.5H69.4968V12.28C69.4968 11.7467 69.4101 11.38 69.2368 11.18C69.0768 10.9667 68.8301 10.86 68.4968 10.86C67.8568 10.86 67.2434 11.32 66.6568 12.24V19.5H63.4968V8.88H66.2568L66.4768 10.14C66.9301 9.60667 67.4168 9.20667 67.9368 8.94C68.4701 8.67333 69.0634 8.54 69.7168 8.54ZM79.6397 8.54C81.2664 8.54 82.5397 9.04 83.4597 10.04C84.3797 11.0267 84.8397 12.4133 84.8397 14.2C84.8397 15.3333 84.6264 16.3267 84.1997 17.18C83.7864 18.02 83.1864 18.6733 82.3997 19.14C81.6264 19.6067 80.7064 19.84 79.6397 19.84C78.0264 19.84 76.7531 19.3467 75.8197 18.36C74.8997 17.36 74.4397 15.9667 74.4397 14.18C74.4397 13.0467 74.6464 12.06 75.0597 11.22C75.4864 10.3667 76.0864 9.70667 76.8597 9.24C77.6464 8.77333 78.5731 8.54 79.6397 8.54ZM79.6397 10.86C78.9997 10.86 78.5197 11.1333 78.1997 11.68C77.8797 12.2133 77.7197 13.0467 77.7197 14.18C77.7197 15.34 77.8731 16.1867 78.1797 16.72C78.4997 17.2533 78.9864 17.52 79.6397 17.52C80.2797 17.52 80.7597 17.2533 81.0797 16.72C81.3997 16.1733 81.5597 15.3333 81.5597 14.2C81.5597 13.04 81.3997 12.1933 81.0797 11.66C80.7731 11.1267 80.2931 10.86 79.6397 10.86ZM90.4594 8.54C91.2194 8.54 91.9328 8.65333 92.5994 8.88C93.2661 9.10667 93.8528 9.42667 94.3594 9.84L93.1994 11.62C92.3328 11.0733 91.4594 10.8 90.5794 10.8C90.1661 10.8 89.8461 10.8733 89.6194 11.02C89.4061 11.1533 89.2994 11.3467 89.2994 11.6C89.2994 11.8 89.3461 11.9667 89.4394 12.1C89.5461 12.22 89.7528 12.3467 90.0594 12.48C90.3661 12.6133 90.8394 12.7733 91.4794 12.96C92.5861 13.28 93.4061 13.7 93.9394 14.22C94.4861 14.7267 94.7594 15.4333 94.7594 16.34C94.7594 17.06 94.5528 17.6867 94.1394 18.22C93.7261 18.74 93.1594 19.14 92.4394 19.42C91.7194 19.7 90.9194 19.84 90.0394 19.84C89.1461 19.84 88.3128 19.7 87.5394 19.42C86.7794 19.14 86.1328 18.7533 85.5994 18.26L87.1394 16.54C88.0328 17.2333 88.9728 17.58 89.9594 17.58C90.4394 17.58 90.8128 17.4933 91.0794 17.32C91.3594 17.1467 91.4994 16.9 91.4994 16.58C91.4994 16.3267 91.4461 16.1267 91.3394 15.98C91.2328 15.8333 91.0261 15.7 90.7194 15.58C90.4128 15.4467 89.9261 15.2867 89.2594 15.1C88.2061 14.7933 87.4194 14.3667 86.8994 13.82C86.3794 13.2733 86.1194 12.5933 86.1194 11.78C86.1194 11.1667 86.2928 10.62 86.6394 10.14C86.9994 9.64667 87.5061 9.26 88.1594 8.98C88.8261 8.68667 89.5928 8.54 90.4594 8.54ZM100.987 8.54C101.721 8.54 102.381 8.64667 102.967 8.86C103.554 9.07333 104.107 9.4 104.627 9.84L103.267 11.72C102.601 11.2133 101.927 10.96 101.247 10.96C100.541 10.96 100.007 11.22 99.6474 11.74C99.2874 12.26 99.1074 13.1 99.1074 14.26C99.1074 15.38 99.2874 16.1733 99.6474 16.64C100.007 17.1067 100.527 17.34 101.207 17.34C101.567 17.34 101.894 17.2867 102.187 17.18C102.481 17.06 102.834 16.8733 103.247 16.62L104.627 18.58C103.574 19.42 102.381 19.84 101.047 19.84C99.9674 19.84 99.0341 19.6133 98.2474 19.16C97.4607 18.6933 96.8541 18.0467 96.4274 17.22C96.0007 16.38 95.7874 15.4 95.7874 14.28C95.7874 13.16 96.0007 12.1667 96.4274 11.3C96.8541 10.4333 97.4607 9.76 98.2474 9.28C99.0341 8.78667 99.9474 8.54 100.987 8.54ZM110.167 8.54C111.794 8.54 113.067 9.04 113.987 10.04C114.907 11.0267 115.367 12.4133 115.367 14.2C115.367 15.3333 115.154 16.3267 114.727 17.18C114.314 18.02 113.714 18.6733 112.927 19.14C112.154 19.6067 111.234 19.84 110.167 19.84C108.554 19.84 107.28 19.3467 106.347 18.36C105.427 17.36 104.967 15.9667 104.967 14.18C104.967 13.0467 105.174 12.06 105.587 11.22C106.014 10.3667 106.614 9.70667 107.387 9.24C108.174 8.77333 109.1 8.54 110.167 8.54ZM110.167 10.86C109.527 10.86 109.047 11.1333 108.727 11.68C108.407 12.2133 108.247 13.0467 108.247 14.18C108.247 15.34 108.4 16.1867 108.707 16.72C109.027 17.2533 109.514 17.52 110.167 17.52C110.807 17.52 111.287 17.2533 111.607 16.72C111.927 16.1733 112.087 15.3333 112.087 14.2C112.087 13.04 111.927 12.1933 111.607 11.66C111.3 11.1267 110.82 10.86 110.167 10.86Z" fill="#5D5D5D"/>
<path d="M7.4839 52.5L6.8599 50.02H3.3879L2.7639 52.5H0.3159L3.7239 41.428H6.5879L9.9799 52.5H7.4839ZM3.8359 48.276H6.4119L5.1159 43.172L3.8359 48.276ZM16.0269 52.1C15.7176 52.3133 15.3656 52.4733 14.9709 52.58C14.5869 52.6973 14.2029 52.756 13.8189 52.756C12.9442 52.7453 12.2829 52.4947 11.8349 52.004C11.3869 51.5133 11.1629 50.7933 11.1629 49.844V45.62H9.8989V44.02H11.1629V42.164L13.4349 41.892V44.02H15.3869L15.1629 45.62H13.4349V49.796C13.4349 50.2013 13.5042 50.4947 13.6429 50.676C13.7816 50.8573 13.9949 50.948 14.2829 50.948C14.5709 50.948 14.8909 50.852 15.2429 50.66L16.0269 52.1ZM23.9354 48.068C23.9354 48.1747 23.9194 48.468 23.8874 48.948H18.5914C18.6661 49.716 18.8741 50.26 19.2154 50.58C19.5567 50.9 20.0207 51.06 20.6074 51.06C20.9701 51.06 21.3114 51.0013 21.6314 50.884C21.9514 50.7667 22.2981 50.58 22.6714 50.324L23.6154 51.604C22.6661 52.372 21.5941 52.756 20.3994 52.756C19.0661 52.756 18.0421 52.356 17.3274 51.556C16.6127 50.756 16.2554 49.6733 16.2554 48.308C16.2554 47.444 16.4047 46.6707 16.7034 45.988C17.0127 45.2947 17.4554 44.7507 18.0314 44.356C18.6181 43.9613 19.3114 43.764 20.1114 43.764C21.3167 43.764 22.2554 44.1427 22.9274 44.9C23.5994 45.6573 23.9354 46.7133 23.9354 48.068ZM21.6794 47.428C21.6794 46.02 21.1727 45.316 20.1594 45.316C19.6901 45.316 19.3221 45.492 19.0554 45.844C18.7994 46.1853 18.6447 46.7453 18.5914 47.524H21.6794V47.428ZM30.3159 43.764C31.0626 43.764 31.6439 43.9933 32.0599 44.452C32.4759 44.9 32.6839 45.524 32.6839 46.324V52.5H30.4119V46.708C30.4119 46.2493 30.3319 45.9293 30.1719 45.748C30.0226 45.556 29.7932 45.46 29.4839 45.46C29.1639 45.46 28.8706 45.5613 28.6039 45.764C28.3479 45.956 28.0972 46.2493 27.8519 46.644V52.5H25.5799V44.02H27.5479L27.7239 45.092C28.0759 44.6547 28.4599 44.324 28.8759 44.1C29.3026 43.876 29.7826 43.764 30.3159 43.764ZM42.1895 40.644V52.5H40.1895L40.0615 51.46C39.4642 52.324 38.6535 52.756 37.6295 52.756C36.5842 52.756 35.7842 52.356 35.2295 51.556C34.6855 50.7453 34.4135 49.6467 34.4135 48.26C34.4135 47.3853 34.5522 46.612 34.8295 45.94C35.1175 45.2573 35.5229 44.724 36.0455 44.34C36.5682 43.956 37.1709 43.764 37.8535 43.764C38.6429 43.764 39.3309 44.0467 39.9175 44.612V40.388L42.1895 40.644ZM38.3015 51.06C38.6322 51.06 38.9255 50.98 39.1815 50.82C39.4375 50.6493 39.6829 50.388 39.9175 50.036V46.244C39.6935 45.9773 39.4642 45.78 39.2295 45.652C39.0055 45.5133 38.7442 45.444 38.4455 45.444C37.9229 45.444 37.5122 45.6733 37.2135 46.132C36.9255 46.5907 36.7815 47.3 36.7815 48.26C36.7815 49.2733 36.9095 49.9933 37.1655 50.42C37.4322 50.8467 37.8109 51.06 38.3015 51.06ZM46.6957 44.02V52.5H44.4236V44.02H46.6957ZM45.5436 39.652C45.949 39.652 46.2796 39.78 46.5357 40.036C46.8023 40.2813 46.9357 40.596 46.9357 40.98C46.9357 41.364 46.8023 41.684 46.5357 41.94C46.2796 42.1853 45.949 42.308 45.5436 42.308C45.1383 42.308 44.8076 42.1853 44.5516 41.94C44.2956 41.684 44.1676 41.364 44.1676 40.98C44.1676 40.596 44.2956 40.2813 44.5516 40.036C44.8076 39.78 45.1383 39.652 45.5436 39.652ZM58.1073 43.764C58.7793 43.764 59.3179 43.9933 59.7233 44.452C60.1393 44.9107 60.3473 45.5347 60.3473 46.324V52.5H58.0753V46.708C58.0753 45.876 57.7979 45.46 57.2433 45.46C56.9446 45.46 56.6833 45.556 56.4593 45.748C56.2353 45.94 56.0059 46.2387 55.7713 46.644V52.5H53.4993V46.708C53.4993 45.876 53.2219 45.46 52.6673 45.46C52.3686 45.46 52.1073 45.5613 51.8833 45.764C51.6593 45.956 51.4353 46.2493 51.2113 46.644V52.5H48.9393V44.02H50.9073L51.0833 45.076C51.4033 44.6493 51.7606 44.324 52.1553 44.1C52.5606 43.876 53.0246 43.764 53.5473 43.764C54.0273 43.764 54.4433 43.8867 54.7953 44.132C55.1473 44.3667 55.4033 44.7027 55.5633 45.14C55.9153 44.6813 56.2939 44.34 56.6993 44.116C57.1153 43.8813 57.5846 43.764 58.1073 43.764ZM69.6698 48.068C69.6698 48.1747 69.6538 48.468 69.6218 48.948H64.3258C64.4004 49.716 64.6084 50.26 64.9498 50.58C65.2911 50.9 65.7551 51.06 66.3418 51.06C66.7044 51.06 67.0458 51.0013 67.3658 50.884C67.6858 50.7667 68.0324 50.58 68.4058 50.324L69.3498 51.604C68.4004 52.372 67.3284 52.756 66.1338 52.756C64.8004 52.756 63.7764 52.356 63.0618 51.556C62.3471 50.756 61.9898 49.6733 61.9898 48.308C61.9898 47.444 62.1391 46.6707 62.4378 45.988C62.7471 45.2947 63.1898 44.7507 63.7658 44.356C64.3524 43.9613 65.0458 43.764 65.8458 43.764C67.0511 43.764 67.9898 44.1427 68.6618 44.9C69.3338 45.6573 69.6698 46.7133 69.6698 48.068ZM67.4138 47.428C67.4138 46.02 66.9071 45.316 65.8938 45.316C65.4244 45.316 65.0564 45.492 64.7898 45.844C64.5338 46.1853 64.3791 46.7453 64.3258 47.524H67.4138V47.428ZM76.0503 43.764C76.7969 43.764 77.3783 43.9933 77.7943 44.452C78.2103 44.9 78.4183 45.524 78.4183 46.324V52.5H76.1463V46.708C76.1463 46.2493 76.0663 45.9293 75.9063 45.748C75.7569 45.556 75.5276 45.46 75.2183 45.46C74.8983 45.46 74.6049 45.5613 74.3383 45.764C74.0823 45.956 73.8316 46.2493 73.5863 46.644V52.5H71.3143V44.02H73.2823L73.4583 45.092C73.8103 44.6547 74.1943 44.324 74.6103 44.1C75.0369 43.876 75.5169 43.764 76.0503 43.764ZM85.6519 52.1C85.3426 52.3133 84.9906 52.4733 84.5959 52.58C84.2119 52.6973 83.8279 52.756 83.4439 52.756C82.5692 52.7453 81.9079 52.4947 81.4599 52.004C81.0119 51.5133 80.7879 50.7933 80.7879 49.844V45.62H79.5239V44.02H80.7879V42.164L83.0599 41.892V44.02H85.0119L84.7879 45.62H83.0599V49.796C83.0599 50.2013 83.1292 50.4947 83.2679 50.676C83.4066 50.8573 83.6199 50.948 83.9079 50.948C84.1959 50.948 84.5159 50.852 84.8679 50.66L85.6519 52.1ZM89.9604 43.764C91.2297 43.764 92.2217 44.164 92.9364 44.964C93.6511 45.7533 94.0084 46.852 94.0084 48.26C94.0084 49.156 93.8431 49.9453 93.5124 50.628C93.1924 51.3 92.7231 51.8227 92.1044 52.196C91.4964 52.5693 90.7764 52.756 89.9444 52.756C88.6751 52.756 87.6777 52.3613 86.9524 51.572C86.2377 50.772 85.8804 49.668 85.8804 48.26C85.8804 47.364 86.0404 46.58 86.3604 45.908C86.6911 45.2253 87.1604 44.6973 87.7684 44.324C88.3871 43.9507 89.1177 43.764 89.9604 43.764ZM89.9604 45.46C89.3844 45.46 88.9524 45.6893 88.6644 46.148C88.3871 46.596 88.2484 47.3 88.2484 48.26C88.2484 49.22 88.3871 49.9293 88.6644 50.388C88.9524 50.836 89.3791 51.06 89.9444 51.06C90.5097 51.06 90.9311 50.836 91.2084 50.388C91.4964 49.9293 91.6404 49.22 91.6404 48.26C91.6404 47.3 91.5017 46.596 91.2244 46.148C90.9471 45.6893 90.5257 45.46 89.9604 45.46ZM5.1159 63.196V65.596H7.4519V66.812H5.1159V69.196H3.7719V66.812H1.4519V65.596H3.7719V63.196H5.1159ZM15.008 61.948H10.832V65.1C11.376 64.8227 11.9467 64.684 12.544 64.684C13.4614 64.684 14.1974 64.988 14.752 65.596C15.3067 66.1933 15.584 67.02 15.584 68.076C15.584 68.78 15.4294 69.4093 15.12 69.964C14.8107 70.508 14.3734 70.9347 13.808 71.244C13.2534 71.5427 12.608 71.692 11.872 71.692C11.2214 71.692 10.64 71.58 10.128 71.356C9.61602 71.1213 9.14136 70.78 8.70402 70.332L9.56802 69.484C9.90936 69.8253 10.2614 70.0813 10.624 70.252C10.9867 70.412 11.3974 70.492 11.856 70.492C12.5387 70.492 13.072 70.2787 13.456 69.852C13.8507 69.4253 14.048 68.8227 14.048 68.044C14.048 67.2653 13.872 66.7 13.52 66.348C13.168 65.996 12.6934 65.82 12.096 65.82C11.8187 65.82 11.5627 65.852 11.328 65.916C11.0934 65.9693 10.8427 66.06 10.576 66.188H9.42402V60.796H15.216L15.008 61.948ZM22.9455 61.948H18.7695V65.1C19.3135 64.8227 19.8842 64.684 20.4815 64.684C21.3989 64.684 22.1349 64.988 22.6895 65.596C23.2442 66.1933 23.5215 67.02 23.5215 68.076C23.5215 68.78 23.3669 69.4093 23.0575 69.964C22.7482 70.508 22.3109 70.9347 21.7455 71.244C21.1909 71.5427 20.5455 71.692 19.8095 71.692C19.1589 71.692 18.5775 71.58 18.0655 71.356C17.5535 71.1213 17.0789 70.78 16.6415 70.332L17.5055 69.484C17.8469 69.8253 18.1989 70.0813 18.5615 70.252C18.9242 70.412 19.3349 70.492 19.7935 70.492C20.4762 70.492 21.0095 70.2787 21.3935 69.852C21.7882 69.4253 21.9855 68.8227 21.9855 68.044C21.9855 67.2653 21.8095 66.7 21.4575 66.348C21.1055 65.996 20.6309 65.82 20.0335 65.82C19.7562 65.82 19.5002 65.852 19.2655 65.916C19.0309 65.9693 18.7802 66.06 18.5135 66.188H17.3615V60.796H23.1535L22.9455 61.948ZM33.0195 58.62C32.4649 59.4413 32.0222 60.1773 31.6915 60.828C31.3715 61.468 31.1155 62.1987 30.9235 63.02C30.7422 63.8413 30.6515 64.8013 30.6515 65.9C30.6515 66.988 30.7422 67.9427 30.9235 68.764C31.1155 69.5853 31.3715 70.3267 31.6915 70.988C32.0222 71.6387 32.4649 72.3693 33.0195 73.18L32.0915 73.82C31.3875 72.8173 30.8435 71.996 30.4595 71.356C30.0862 70.7053 29.7662 69.932 29.4995 69.036C29.2435 68.1293 29.1155 67.084 29.1155 65.9C29.1155 64.716 29.2435 63.676 29.4995 62.78C29.7662 61.8733 30.0862 61.1 30.4595 60.46C30.8435 59.8093 31.3875 58.9827 32.0915 57.98L33.0195 58.62ZM38.5185 60.796V71.5H37.0465V62.364L34.5505 63.884L33.9105 62.844L37.2225 60.796H38.5185ZM45.2217 60.796V71.5H43.7497V62.364L41.2536 63.884L40.6136 62.844L43.9257 60.796H45.2217ZM48.5435 57.98C49.2475 58.9827 49.7862 59.8093 50.1595 60.46C50.5435 61.1 50.8635 61.8733 51.1195 62.78C51.3862 63.676 51.5195 64.716 51.5195 65.9C51.5195 67.084 51.3862 68.1293 51.1195 69.036C50.8635 69.932 50.5435 70.7053 50.1595 71.356C49.7862 71.996 49.2475 72.8173 48.5435 73.82L47.6155 73.18C48.1702 72.3693 48.6075 71.6387 48.9275 70.988C49.2582 70.3267 49.5142 69.5853 49.6955 68.764C49.8875 67.9427 49.9835 66.988 49.9835 65.9C49.9835 64.8013 49.8875 63.8413 49.6955 63.02C49.5142 62.1987 49.2582 61.468 48.9275 60.828C48.6075 60.1773 48.1702 59.4413 47.6155 58.62L48.5435 57.98ZM60.0454 60.636C60.6854 60.636 61.2454 60.764 61.7254 61.02C62.2161 61.276 62.5947 61.628 62.8614 62.076C63.1281 62.5133 63.2614 63.0093 63.2614 63.564C63.2614 64.2147 63.1121 64.8387 62.8134 65.436C62.5254 66.0333 62.0774 66.6787 61.4694 67.372C60.8614 68.0653 59.9387 69.0307 58.7014 70.268H63.5174L63.3414 71.5H57.0214V70.332C58.4507 68.8493 59.4641 67.7667 60.0614 67.084C60.6587 66.3907 61.0854 65.788 61.3414 65.276C61.5974 64.764 61.7254 64.2147 61.7254 63.628C61.7254 63.0733 61.5654 62.6413 61.2454 62.332C60.9254 62.012 60.4987 61.852 59.9654 61.852C59.5281 61.852 59.1441 61.9427 58.8134 62.124C58.4827 62.3053 58.1307 62.604 57.7574 63.02L56.7974 62.252C57.2347 61.708 57.7201 61.3027 58.2534 61.036C58.7867 60.7693 59.3841 60.636 60.0454 60.636ZM67.8412 60.636C68.5025 60.636 69.0678 60.7587 69.5372 61.004C70.0172 61.2493 70.3798 61.58 70.6252 61.996C70.8812 62.412 71.0092 62.8653 71.0092 63.356C71.0092 64.0067 70.8172 64.5453 70.4332 64.972C70.0598 65.388 69.5585 65.6707 68.9292 65.82C69.6438 65.884 70.2252 66.14 70.6732 66.588C71.1212 67.036 71.3452 67.644 71.3452 68.412C71.3452 69.0307 71.1958 69.5907 70.8972 70.092C70.5985 70.5933 70.1718 70.988 69.6172 71.276C69.0625 71.5533 68.4225 71.692 67.6971 71.692C67.0465 71.692 66.4491 71.5747 65.9051 71.34C65.3611 71.0947 64.8865 70.732 64.4811 70.252L65.3611 69.436C65.7131 69.7987 66.0705 70.0653 66.4332 70.236C66.8065 70.4067 67.2118 70.492 67.6492 70.492C68.3212 70.492 68.8492 70.3053 69.2332 69.932C69.6172 69.548 69.8092 69.036 69.8092 68.396C69.8092 67.692 69.6278 67.196 69.2652 66.908C68.9025 66.62 68.3745 66.476 67.6811 66.476H66.8812L67.0572 65.34H67.6012C68.1558 65.34 68.6145 65.1747 68.9771 64.844C69.3505 64.5133 69.5372 64.0493 69.5372 63.452C69.5372 62.9507 69.3772 62.556 69.0572 62.268C68.7372 61.9693 68.3052 61.82 67.7612 61.82C67.3452 61.82 66.9612 61.8947 66.6091 62.044C66.2678 62.1933 65.9158 62.4387 65.5531 62.78L64.7851 61.9C65.6918 61.0573 66.7105 60.636 67.8412 60.636ZM76.182 60.636C77.3127 60.636 78.1714 61.0093 78.758 61.756C79.3447 62.492 79.638 63.5053 79.638 64.796C79.638 66.2573 79.4407 67.436 79.046 68.332C78.6514 69.2173 78.0487 69.9267 77.238 70.46C76.4274 70.9827 75.3287 71.4467 73.942 71.852L73.606 70.748C75.0354 70.3427 76.1287 69.7933 76.886 69.1C77.654 68.4067 78.0647 67.484 78.118 66.332C77.8727 66.716 77.542 67.0253 77.126 67.26C76.71 67.4947 76.2407 67.612 75.718 67.612C75.1634 67.612 74.662 67.4733 74.214 67.196C73.766 66.908 73.4087 66.508 73.142 65.996C72.886 65.4733 72.758 64.8653 72.758 64.172C72.758 63.4467 72.9127 62.8173 73.222 62.284C73.5314 61.7507 73.942 61.3453 74.454 61.068C74.9767 60.78 75.5527 60.636 76.182 60.636ZM76.022 66.46C76.8647 66.46 77.574 66.0173 78.15 65.132C78.1714 63.948 78.022 63.1 77.702 62.588C77.3927 62.0653 76.8967 61.804 76.214 61.804C75.5847 61.804 75.0994 62.012 74.758 62.428C74.4167 62.844 74.246 63.436 74.246 64.204C74.246 64.9507 74.406 65.516 74.726 65.9C75.046 66.2733 75.478 66.46 76.022 66.46ZM85.2998 60.796V71.5H83.8278V62.364L81.3318 63.884L80.6918 62.844L84.0038 60.796H85.2998ZM88.0136 67.116V65.868H92.5417V67.116H88.0136ZM98.4348 64.46C98.9788 64.46 99.4748 64.588 99.9228 64.844C100.371 65.1 100.728 65.484 100.995 65.996C101.261 66.508 101.395 67.132 101.395 67.868C101.395 68.6253 101.24 69.2973 100.931 69.884C100.632 70.46 100.221 70.908 99.6988 71.228C99.1868 71.5373 98.6161 71.692 97.9868 71.692C96.7388 71.692 95.8268 71.2333 95.2508 70.316C94.6748 69.388 94.3868 68.108 94.3868 66.476C94.3868 65.3133 94.5468 64.2947 94.8668 63.42C95.1974 62.5347 95.6668 61.852 96.2748 61.372C96.8828 60.8813 97.6028 60.636 98.4348 60.636C99.2454 60.636 99.9814 60.8547 100.643 61.292L100.067 62.268C99.5654 61.9587 99.0161 61.804 98.4188 61.804C97.6508 61.804 97.0428 62.172 96.5948 62.908C96.1468 63.644 95.9014 64.6307 95.8588 65.868C96.5201 64.9293 97.3788 64.46 98.4348 64.46ZM97.9868 70.524C98.6054 70.524 99.0801 70.2893 99.4108 69.82C99.7414 69.3507 99.9068 68.716 99.9068 67.916C99.9068 66.3907 99.3308 65.628 98.1788 65.628C97.7094 65.628 97.2774 65.7613 96.8828 66.028C96.4881 66.284 96.1521 66.6413 95.8748 67.1C95.9068 68.2733 96.0881 69.1373 96.4188 69.692C96.7601 70.2467 97.2828 70.524 97.9868 70.524ZM106.502 60.636C107.686 60.636 108.577 61.1107 109.174 62.06C109.782 62.9987 110.086 64.364 110.086 66.156C110.086 67.948 109.782 69.3187 109.174 70.268C108.577 71.2173 107.686 71.692 106.502 71.692C105.318 71.692 104.422 71.2173 103.814 70.268C103.217 69.3187 102.918 67.948 102.918 66.156C102.918 64.364 103.217 62.9987 103.814 62.06C104.422 61.1107 105.318 60.636 106.502 60.636ZM106.502 61.804C105.809 61.804 105.291 62.1453 104.95 62.828C104.619 63.5107 104.454 64.62 104.454 66.156C104.454 67.692 104.619 68.8067 104.95 69.5C105.291 70.1827 105.809 70.524 106.502 70.524C107.185 70.524 107.697 70.1827 108.038 69.5C108.379 68.8067 108.55 67.692 108.55 66.156C108.55 64.6307 108.379 63.5267 108.038 62.844C107.697 62.1507 107.185 61.804 106.502 61.804ZM114.948 60.636C116.078 60.636 116.937 61.0093 117.524 61.756C118.11 62.492 118.404 63.5053 118.404 64.796C118.404 66.2573 118.206 67.436 117.812 68.332C117.417 69.2173 116.814 69.9267 116.004 70.46C115.193 70.9827 114.094 71.4467 112.708 71.852L112.372 70.748C113.801 70.3427 114.894 69.7933 115.652 69.1C116.42 68.4067 116.83 67.484 116.884 66.332C116.638 66.716 116.308 67.0253 115.892 67.26C115.476 67.4947 115.006 67.612 114.484 67.612C113.929 67.612 113.428 67.4733 112.98 67.196C112.532 66.908 112.174 66.508 111.908 65.996C111.652 65.4733 111.524 64.8653 111.524 64.172C111.524 63.4467 111.678 62.8173 111.988 62.284C112.297 61.7507 112.708 61.3453 113.22 61.068C113.742 60.78 114.318 60.636 114.948 60.636ZM114.788 66.46C115.63 66.46 116.34 66.0173 116.916 65.132C116.937 63.948 116.788 63.1 116.468 62.588C116.158 62.0653 115.662 61.804 114.98 61.804C114.35 61.804 113.865 62.012 113.524 62.428C113.182 62.844 113.012 63.436 113.012 64.204C113.012 64.9507 113.172 65.516 113.492 65.9C113.812 66.2733 114.244 66.46 114.788 66.46ZM123.674 60.636C124.858 60.636 125.749 61.1107 126.346 62.06C126.954 62.9987 127.258 64.364 127.258 66.156C127.258 67.948 126.954 69.3187 126.346 70.268C125.749 71.2173 124.858 71.692 123.674 71.692C122.49 71.692 121.594 71.2173 120.986 70.268C120.389 69.3187 120.09 67.948 120.09 66.156C120.09 64.364 120.389 62.9987 120.986 62.06C121.594 61.1107 122.49 60.636 123.674 60.636ZM123.674 61.804C122.981 61.804 122.463 62.1453 122.122 62.828C121.791 63.5107 121.626 64.62 121.626 66.156C121.626 67.692 121.791 68.8067 122.122 69.5C122.463 70.1827 122.981 70.524 123.674 70.524C124.357 70.524 124.869 70.1827 125.21 69.5C125.551 68.8067 125.722 67.692 125.722 66.156C125.722 64.6307 125.551 63.5267 125.21 62.844C124.869 62.1507 124.357 61.804 123.674 61.804Z" fill="#7F7F7F"/>
<path d="M187.18 48.164H185.98V52.5H183.628V41.428H187.084C188.567 41.428 189.681 41.7053 190.428 42.26C191.175 42.804 191.548 43.6307 191.548 44.74C191.548 45.4653 191.367 46.0627 191.004 46.532C190.652 47.0013 190.103 47.4013 189.356 47.732L192.22 52.5H189.548L187.18 48.164ZM185.98 46.5H187.212C187.841 46.5 188.316 46.3613 188.636 46.084C188.956 45.796 189.116 45.348 189.116 44.74C189.116 44.1747 188.945 43.764 188.604 43.508C188.273 43.2413 187.751 43.108 187.036 43.108H185.98V46.5ZM200.342 48.068C200.342 48.1747 200.326 48.468 200.294 48.948H194.998C195.072 49.716 195.28 50.26 195.622 50.58C195.963 50.9 196.427 51.06 197.014 51.06C197.376 51.06 197.718 51.0013 198.038 50.884C198.358 50.7667 198.704 50.58 199.078 50.324L200.022 51.604C199.072 52.372 198 52.756 196.806 52.756C195.472 52.756 194.448 52.356 193.734 51.556C193.019 50.756 192.662 49.6733 192.662 48.308C192.662 47.444 192.811 46.6707 193.11 45.988C193.419 45.2947 193.862 44.7507 194.438 44.356C195.024 43.9613 195.718 43.764 196.518 43.764C197.723 43.764 198.662 44.1427 199.334 44.9C200.006 45.6573 200.342 46.7133 200.342 48.068ZM198.086 47.428C198.086 46.02 197.579 45.316 196.566 45.316C196.096 45.316 195.728 45.492 195.462 45.844C195.206 46.1853 195.051 46.7453 194.998 47.524H198.086V47.428ZM209.33 40.644V52.5H207.33L207.202 51.46C206.605 52.324 205.794 52.756 204.77 52.756C203.725 52.756 202.925 52.356 202.37 51.556C201.826 50.7453 201.554 49.6467 201.554 48.26C201.554 47.3853 201.693 46.612 201.97 45.94C202.258 45.2573 202.663 44.724 203.186 44.34C203.709 43.956 204.311 43.764 204.994 43.764C205.783 43.764 206.471 44.0467 207.058 44.612V40.388L209.33 40.644ZM205.442 51.06C205.773 51.06 206.066 50.98 206.322 50.82C206.578 50.6493 206.823 50.388 207.058 50.036V46.244C206.834 45.9773 206.605 45.78 206.37 45.652C206.146 45.5133 205.885 45.444 205.586 45.444C205.063 45.444 204.653 45.6733 204.354 46.132C204.066 46.5907 203.922 47.3 203.922 48.26C203.922 49.2733 204.05 49.9933 204.306 50.42C204.573 50.8467 204.951 51.06 205.442 51.06ZM218.732 48.068C218.732 48.1747 218.716 48.468 218.684 48.948H213.388C213.463 49.716 213.671 50.26 214.012 50.58C214.354 50.9 214.818 51.06 215.404 51.06C215.767 51.06 216.108 51.0013 216.428 50.884C216.748 50.7667 217.095 50.58 217.468 50.324L218.412 51.604C217.463 52.372 216.391 52.756 215.196 52.756C213.863 52.756 212.839 52.356 212.124 51.556C211.41 50.756 211.052 49.6733 211.052 48.308C211.052 47.444 211.202 46.6707 211.5 45.988C211.81 45.2947 212.252 44.7507 212.828 44.356C213.415 43.9613 214.108 43.764 214.908 43.764C216.114 43.764 217.052 44.1427 217.724 44.9C218.396 45.6573 218.732 46.7133 218.732 48.068ZM216.476 47.428C216.476 46.02 215.97 45.316 214.956 45.316C214.487 45.316 214.119 45.492 213.852 45.844C213.596 46.1853 213.442 46.7453 213.388 47.524H216.476V47.428ZM223.193 43.764C224.387 43.764 225.411 44.1053 226.265 44.788L225.401 46.084C224.686 45.636 223.982 45.412 223.289 45.412C222.915 45.412 222.627 45.4813 222.425 45.62C222.222 45.7587 222.121 45.9453 222.121 46.18C222.121 46.3507 222.163 46.4947 222.249 46.612C222.345 46.7293 222.515 46.8413 222.761 46.948C223.017 47.0547 223.395 47.1827 223.897 47.332C224.793 47.5773 225.459 47.908 225.897 48.324C226.334 48.7293 226.553 49.2893 226.553 50.004C226.553 50.5693 226.387 51.06 226.057 51.476C225.737 51.892 225.299 52.212 224.745 52.436C224.19 52.6493 223.571 52.756 222.889 52.756C222.174 52.756 221.523 52.6493 220.937 52.436C220.35 52.212 219.849 51.908 219.433 51.524L220.553 50.276C221.267 50.8307 222.025 51.108 222.825 51.108C223.251 51.108 223.587 51.028 223.833 50.868C224.089 50.6973 224.217 50.468 224.217 50.18C224.217 49.956 224.169 49.78 224.073 49.652C223.977 49.524 223.801 49.4067 223.545 49.3C223.289 49.1827 222.889 49.0493 222.345 48.9C221.491 48.6653 220.857 48.3347 220.441 47.908C220.035 47.4707 219.833 46.932 219.833 46.292C219.833 45.812 219.971 45.38 220.249 44.996C220.526 44.612 220.915 44.3133 221.417 44.1C221.929 43.876 222.521 43.764 223.193 43.764ZM235.363 41.172C236.163 41.172 236.857 41.2893 237.443 41.524C238.041 41.748 238.59 42.0947 239.091 42.564L237.971 43.86C237.577 43.54 237.182 43.3053 236.787 43.156C236.393 43.0067 235.971 42.932 235.523 42.932C235.033 42.932 234.638 43.0387 234.339 43.252C234.051 43.4547 233.907 43.748 233.907 44.132C233.907 44.3987 233.966 44.6173 234.083 44.788C234.211 44.9587 234.43 45.1187 234.739 45.268C235.049 45.4173 235.513 45.588 236.131 45.78C237.23 46.132 238.051 46.5693 238.595 47.092C239.139 47.604 239.411 48.34 239.411 49.3C239.411 49.9827 239.241 50.5853 238.899 51.108C238.558 51.62 238.062 52.0253 237.411 52.324C236.761 52.612 235.998 52.756 235.123 52.756C234.249 52.756 233.47 52.6173 232.787 52.34C232.105 52.0627 231.518 51.684 231.027 51.204L232.227 49.876C232.654 50.2387 233.097 50.516 233.555 50.708C234.014 50.8893 234.515 50.98 235.059 50.98C235.635 50.98 236.094 50.8467 236.435 50.58C236.787 50.3133 236.963 49.94 236.963 49.46C236.963 49.1613 236.899 48.916 236.771 48.724C236.654 48.5213 236.446 48.34 236.147 48.18C235.849 48.02 235.417 47.8547 234.851 47.684C233.646 47.3107 232.782 46.8627 232.259 46.34C231.747 45.8173 231.491 45.1347 231.491 44.292C231.491 43.6733 231.657 43.1293 231.987 42.66C232.318 42.18 232.777 41.812 233.363 41.556C233.95 41.3 234.617 41.172 235.363 41.172ZM244.554 43.764C245.823 43.764 246.815 44.164 247.53 44.964C248.245 45.7533 248.602 46.852 248.602 48.26C248.602 49.156 248.437 49.9453 248.106 50.628C247.786 51.3 247.317 51.8227 246.698 52.196C246.09 52.5693 245.37 52.756 244.538 52.756C243.269 52.756 242.271 52.3613 241.546 51.572C240.831 50.772 240.474 49.668 240.474 48.26C240.474 47.364 240.634 46.58 240.954 45.908C241.285 45.2253 241.754 44.6973 242.362 44.324C242.981 43.9507 243.711 43.764 244.554 43.764ZM244.554 45.46C243.978 45.46 243.546 45.6893 243.258 46.148C242.981 46.596 242.842 47.3 242.842 48.26C242.842 49.22 242.981 49.9293 243.258 50.388C243.546 50.836 243.973 51.06 244.538 51.06C245.103 51.06 245.525 50.836 245.802 50.388C246.09 49.9293 246.234 49.22 246.234 48.26C246.234 47.3 246.095 46.596 245.818 46.148C245.541 45.6893 245.119 45.46 244.554 45.46ZM253.866 43.764C254.431 43.764 254.938 43.8493 255.386 44.02C255.845 44.18 256.277 44.436 256.682 44.788L255.69 46.132C255.413 45.9187 255.141 45.764 254.874 45.668C254.618 45.572 254.335 45.524 254.026 45.524C252.821 45.524 252.218 46.452 252.218 48.308C252.218 49.2467 252.373 49.9187 252.682 50.324C252.991 50.7293 253.434 50.932 254.01 50.932C254.309 50.932 254.581 50.8893 254.826 50.804C255.071 50.708 255.359 50.5533 255.69 50.34L256.682 51.764C255.871 52.4253 254.943 52.756 253.898 52.756C253.066 52.756 252.341 52.5747 251.722 52.212C251.114 51.8493 250.645 51.3373 250.314 50.676C249.983 50.004 249.818 49.22 249.818 48.324C249.818 47.428 249.983 46.6387 250.314 45.956C250.645 45.2627 251.114 44.724 251.722 44.34C252.341 43.956 253.055 43.764 253.866 43.764ZM260.243 44.02V52.5H257.971V44.02H260.243ZM259.091 39.652C259.496 39.652 259.827 39.78 260.083 40.036C260.349 40.2813 260.483 40.596 260.483 40.98C260.483 41.364 260.349 41.684 260.083 41.94C259.827 42.1853 259.496 42.308 259.091 42.308C258.685 42.308 258.355 42.1853 258.099 41.94C257.843 41.684 257.715 41.364 257.715 40.98C257.715 40.596 257.843 40.2813 258.099 40.036C258.355 39.78 258.685 39.652 259.091 39.652ZM268.966 50.148C268.966 50.4787 269.014 50.724 269.11 50.884C269.206 51.0333 269.366 51.1453 269.59 51.22L269.11 52.724C268.609 52.6813 268.198 52.564 267.878 52.372C267.569 52.18 267.329 51.8813 267.158 51.476C266.603 52.3293 265.755 52.756 264.614 52.756C263.771 52.756 263.099 52.516 262.598 52.036C262.107 51.5453 261.862 50.9107 261.862 50.132C261.862 49.204 262.198 48.4947 262.87 48.004C263.542 47.5133 264.507 47.268 265.766 47.268H266.742V46.852C266.742 46.3293 266.625 45.9667 266.39 45.764C266.155 45.5613 265.766 45.46 265.222 45.46C264.625 45.46 263.878 45.6093 262.982 45.908L262.47 44.388C263.526 43.972 264.571 43.764 265.606 43.764C266.758 43.764 267.606 44.0147 268.15 44.516C268.694 45.0067 268.966 45.7427 268.966 46.724V50.148ZM265.238 51.124C265.878 51.124 266.379 50.8093 266.742 50.18V48.564H265.99C264.763 48.564 264.15 49.0227 264.15 49.94C264.15 50.3133 264.241 50.6067 264.422 50.82C264.614 51.0227 264.886 51.124 265.238 51.124ZM273.508 44.02V52.5H271.236V44.02H273.508ZM272.356 39.652C272.761 39.652 273.092 39.78 273.348 40.036C273.615 40.2813 273.748 40.596 273.748 40.98C273.748 41.364 273.615 41.684 273.348 41.94C273.092 42.1853 272.761 42.308 272.356 42.308C271.951 42.308 271.62 42.1853 271.364 41.94C271.108 41.684 270.98 41.364 270.98 40.98C270.98 40.596 271.108 40.2813 271.364 40.036C271.62 39.78 271.951 39.652 272.356 39.652ZM278.568 43.764C279.762 43.764 280.786 44.1053 281.64 44.788L280.776 46.084C280.061 45.636 279.357 45.412 278.664 45.412C278.29 45.412 278.002 45.4813 277.8 45.62C277.597 45.7587 277.496 45.9453 277.496 46.18C277.496 46.3507 277.538 46.4947 277.624 46.612C277.72 46.7293 277.89 46.8413 278.136 46.948C278.392 47.0547 278.77 47.1827 279.272 47.332C280.168 47.5773 280.834 47.908 281.272 48.324C281.709 48.7293 281.928 49.2893 281.928 50.004C281.928 50.5693 281.762 51.06 281.432 51.476C281.112 51.892 280.674 52.212 280.12 52.436C279.565 52.6493 278.946 52.756 278.264 52.756C277.549 52.756 276.898 52.6493 276.312 52.436C275.725 52.212 275.224 51.908 274.808 51.524L275.928 50.276C276.642 50.8307 277.4 51.108 278.2 51.108C278.626 51.108 278.962 51.028 279.208 50.868C279.464 50.6973 279.592 50.468 279.592 50.18C279.592 49.956 279.544 49.78 279.448 49.652C279.352 49.524 279.176 49.4067 278.92 49.3C278.664 49.1827 278.264 49.0493 277.72 48.9C276.866 48.6653 276.232 48.3347 275.816 47.908C275.41 47.4707 275.208 46.932 275.208 46.292C275.208 45.812 275.346 45.38 275.624 44.996C275.901 44.612 276.29 44.3133 276.792 44.1C277.304 43.876 277.896 43.764 278.568 43.764Z" fill="#7F7F7F"/>
<path d="M214.54 80.5401C214.54 71.686 207.354 64.5 198.5 64.5C189.646 64.5 182.46 71.686 182.46 80.5401C182.46 88.3035 187.978 94.7677 195.292 96.2594V85.3521H192.084V80.5401H195.292V76.5301C195.292 73.4343 197.81 70.916 200.906 70.916H204.916V75.7281H201.708C200.826 75.7281 200.104 76.4499 200.104 77.3321V80.5401H204.916V85.3521H200.104V96.5C208.204 95.698 214.54 88.8649 214.54 80.5401Z" fill="#B1B1B1"/>
<path d="M259.54 80.5C259.54 81.8261 259.013 83.0979 258.076 84.0355C257.138 84.9732 255.866 85.5 254.54 85.5C253.214 85.5 251.942 84.9732 251.005 84.0355C250.067 83.0979 249.54 81.8261 249.54 80.5C249.54 80.215 249.57 79.9367 249.622 79.6667H247.873V86.3283C247.873 86.7917 248.248 87.1667 248.712 87.1667H260.37C260.592 87.1662 260.805 87.0777 260.962 86.9205C261.119 86.7634 261.207 86.5504 261.207 86.3283V79.6667H259.458C259.51 79.9367 259.54 80.215 259.54 80.5ZM254.54 83.8333C254.978 83.8332 255.411 83.7469 255.816 83.5792C256.22 83.4116 256.588 83.1659 256.897 82.8562C257.207 82.5465 257.452 82.1789 257.62 81.7743C257.787 81.3698 257.874 80.9362 257.873 80.4983C257.873 80.0605 257.787 79.6269 257.619 79.2225C257.452 78.818 257.206 78.4505 256.896 78.141C256.587 77.8314 256.219 77.5859 255.814 77.4185C255.41 77.251 254.976 77.1649 254.538 77.165C253.654 77.1652 252.806 77.5167 252.181 78.1421C251.556 78.7676 251.205 79.6157 251.205 80.5C251.205 81.3843 251.557 82.2322 252.182 82.8574C252.808 83.4825 253.656 83.8336 254.54 83.8333ZM258.54 77H260.538C260.671 77 260.799 76.9474 260.893 76.8537C260.987 76.7599 261.04 76.6328 261.04 76.5V74.5017C261.04 74.3686 260.987 74.241 260.893 74.1469C260.799 74.0529 260.671 74 260.538 74H258.54C258.407 74 258.279 74.0529 258.185 74.1469C258.091 74.241 258.038 74.3686 258.038 74.5017V76.5C258.04 76.775 258.265 77 258.54 77ZM254.54 64.5C250.297 64.5 246.227 66.1857 243.226 69.1863C240.226 72.1869 238.54 76.2565 238.54 80.5C238.54 84.7435 240.226 88.8131 243.226 91.8137C246.227 94.8143 250.297 96.5 254.54 96.5C256.641 96.5 258.722 96.0861 260.663 95.2821C262.604 94.478 264.368 93.2994 265.854 91.8137C267.34 90.328 268.518 88.5641 269.322 86.6229C270.126 84.6817 270.54 82.6012 270.54 80.5C270.54 78.3989 270.126 76.3183 269.322 74.3771C268.518 72.4359 267.34 70.672 265.854 69.1863C264.368 67.7006 262.604 66.522 260.663 65.7179C258.722 64.9139 256.641 64.5 254.54 64.5ZM262.873 86.9817C262.873 88 262.04 88.8333 261.022 88.8333H248.058C247.04 88.8333 246.207 88 246.207 86.9817V74.0183C246.207 73 247.04 72.1667 248.058 72.1667H261.022C262.04 72.1667 262.873 73 262.873 74.0183V86.9817Z" fill="#B1B1B1"/>
<path d="M310.54 64.5C301.703 64.5 294.54 71.6633 294.54 80.5C294.54 89.3367 301.703 96.5 310.54 96.5C319.377 96.5 326.54 89.3367 326.54 80.5C326.54 71.6633 319.377 64.5 310.54 64.5ZM306.623 87.1317H303.383V76.705H306.623V87.1317ZM304.983 75.425C303.96 75.425 303.298 74.7 303.298 73.8033C303.298 72.8883 303.98 72.185 305.025 72.185C306.07 72.185 306.71 72.8883 306.73 73.8033C306.73 74.7 306.07 75.425 304.983 75.425ZM318.457 87.1317H315.217V81.3533C315.217 80.0083 314.747 79.095 313.575 79.095C312.68 79.095 312.148 79.7133 311.913 80.3083C311.827 80.52 311.805 80.82 311.805 81.1183V87.13H308.563V80.03C308.563 78.7283 308.522 77.64 308.478 76.7033H311.293L311.442 78.1517H311.507C311.933 77.4717 312.978 76.4683 314.727 76.4683C316.858 76.4683 318.457 77.8967 318.457 80.9667V87.1317Z" fill="#B1B1B1"/>
</svg>
