<svg width="24" height="24" viewBox="0 0 24 24" fill="none" xmlns="http://www.w3.org/2000/svg">
<path d="M9 4C11.2 4 13 5.8 13 8C13 10.2 11.2 12 9 12C6.8 12 5 10.2 5 8C5 5.8 6.8 4 9 4ZM16 21L17.8 22.77C18.3 23.27 19 22.87 19 22.28V18L21.8 14.6C21.9114 14.4514 21.9793 14.2748 21.996 14.0898C22.0126 13.9048 21.9775 13.7189 21.8944 13.5528C21.8114 13.3867 21.6837 13.247 21.5257 13.1493C21.3678 13.0517 21.1857 13 21 13H14C13.2 13 12.7 14 13.2 14.6L16 18V21ZM14 18.7L11.7 15.9C11.3 15.4 11.1 14.8 11.1 14.2C10.4 14 9.7 14 9 14C4.6 14 1 15.8 1 18V20H14V18.7Z" fill="#6A0F65"/>
</svg>
