<svg width="40" height="38" viewBox="0 0 40 38" fill="none" xmlns="http://www.w3.org/2000/svg">
<path d="M34.7453 23.5214L27.3844 20.3878L27.3641 20.3789C26.9819 20.2237 26.5651 20.1613 26.1512 20.1976C25.7373 20.2339 25.3395 20.3677 24.9938 20.5867C24.9531 20.6123 24.9139 20.64 24.8766 20.6699L21.0735 23.7499C18.6641 22.6381 16.1766 20.2928 15.0063 18.0336L18.2531 14.3657C18.2844 14.3286 18.3141 14.2915 18.3422 14.2514C18.5679 13.9238 18.7048 13.5483 18.7408 13.1583C18.7768 12.7683 18.7107 12.3759 18.5485 12.016V11.9981L15.2406 4.99338C15.0262 4.52323 14.6574 4.13158 14.1894 3.87689C13.7213 3.62221 13.1792 3.51815 12.6438 3.58026C10.5265 3.84493 8.58311 4.83273 7.17647 6.35915C5.76984 7.88557 4.99619 9.84624 5.00001 11.8749C5.00001 23.6609 15.0938 33.2499 27.5 33.2499C29.6355 33.2536 31.6994 32.5186 33.3061 31.1823C34.9129 29.846 35.9527 27.9998 36.2313 25.9884C36.2968 25.4799 36.1875 24.965 35.9197 24.5204C35.6519 24.0758 35.2399 23.7253 34.7453 23.5214ZM27.5 30.8749C22.1975 30.8694 17.1137 28.8659 13.3643 25.3039C9.6148 21.7419 7.5058 16.9124 7.50001 11.8749C7.49414 10.4254 8.04384 9.02345 9.04648 7.93082C10.0491 6.83819 11.4361 6.12962 12.9485 5.93744C12.9478 5.94337 12.9478 5.94933 12.9485 5.95526L16.2297 12.9318L13 16.6042C12.9672 16.64 12.9375 16.6782 12.911 16.7185C12.6758 17.0612 12.5379 17.4559 12.5105 17.8642C12.4831 18.2725 12.5672 18.6806 12.7547 19.0489C14.1703 21.7995 17.0875 24.55 20.0141 25.8934C20.4046 26.0698 20.8367 26.1469 21.2681 26.1173C21.6994 26.0876 22.1153 25.9522 22.475 25.7242C22.5151 25.6985 22.5537 25.6707 22.5906 25.641L26.3891 22.5624L33.7328 25.6871H33.75C33.5502 27.1258 32.8054 28.4461 31.6551 29.401C30.5047 30.3558 29.0276 30.8798 27.5 30.8749Z" fill="white"/>
</svg>
