<svg width="20" height="16" viewBox="0 0 20 16" fill="none" xmlns="http://www.w3.org/2000/svg">
<path fill-rule="evenodd" clip-rule="evenodd" d="M10 2.00011C9.54037 2.00011 9.08525 2.09064 8.66061 2.26653C8.23597 2.44242 7.85013 2.70023 7.52513 3.02523C7.20012 3.35024 6.94231 3.73608 6.76642 4.16072C6.59053 4.58536 6.5 5.04048 6.5 5.50011C6.5 5.95973 6.59053 6.41486 6.76642 6.8395C6.94231 7.26414 7.20012 7.64998 7.52513 7.97498C7.85013 8.29999 8.23597 8.55779 8.66061 8.73369C9.08525 8.90958 9.54037 9.00011 10 9.00011C10.9283 9.00011 11.8185 8.63136 12.4749 7.97498C13.1313 7.3186 13.5 6.42837 13.5 5.50011C13.5 4.57185 13.1313 3.68161 12.4749 3.02523C11.8185 2.36886 10.9283 2.00011 10 2.00011ZM8.5 10.0001C7.43913 10.0001 6.42172 10.4215 5.67157 11.1717C4.92143 11.9218 4.5 12.9392 4.5 14.0001C4.5 14.5305 4.71071 15.0392 5.08579 15.4143C5.46086 15.7894 5.96957 16.0001 6.5 16.0001H13.5C14.0304 16.0001 14.5391 15.7894 14.9142 15.4143C15.2893 15.0392 15.5 14.5305 15.5 14.0001C15.5 12.9392 15.0786 11.9218 14.3284 11.1717C13.5783 10.4215 12.5609 10.0001 11.5 10.0001H8.5ZM15.32 6.90411C15.6379 5.69345 15.5341 4.41063 15.0257 3.26682C14.5174 2.12301 13.6347 1.18638 12.523 0.611108C12.9466 0.321625 13.4287 0.128819 13.9351 0.0463442C14.4415 -0.0361307 14.9599 -0.00625765 15.4535 0.133849C15.947 0.273955 16.4038 0.520867 16.7913 0.8571C17.1789 1.19333 17.4878 1.61066 17.6961 2.07953C17.9045 2.54841 18.0072 3.05735 17.997 3.57034C17.9868 4.08332 17.864 4.58778 17.6372 5.04801C17.4104 5.50824 17.0851 5.91298 16.6845 6.23355C16.2839 6.55413 15.8178 6.78271 15.319 6.90311L15.32 6.90411ZM17.5 14.0001H18C18.5304 14.0001 19.0391 13.7894 19.4142 13.4143C19.7893 13.0392 20 12.5305 20 12.0001C20 10.9392 19.5786 9.92183 18.8284 9.17168C18.0783 8.42153 17.0609 8.00011 16 8.00011H14.9C14.764 8.26649 14.6064 8.52133 14.429 8.76211C15.3606 9.28298 16.1364 10.043 16.6763 10.9638C17.2161 11.8846 17.5005 12.9327 17.5 14.0001ZM2 3.50011C1.99985 2.8629 2.17366 2.23773 2.50268 1.69204C2.8317 1.14635 3.30346 0.700831 3.86707 0.40354C4.43068 0.106248 5.06476 -0.0315387 5.70092 0.00504004C6.33708 0.0416188 6.95118 0.251175 7.477 0.611108C6.36425 1.18513 5.48066 2.12165 4.97227 3.26589C4.46389 4.41012 4.36114 5.69357 4.681 6.90411C3.91688 6.72002 3.23694 6.28416 2.75062 5.6667C2.26431 5.04923 1.99991 4.28609 2 3.50011ZM5.1 8.00011H4C2.93913 8.00011 1.92172 8.42153 1.17157 9.17168C0.421427 9.92183 0 10.9392 0 12.0001C0 12.5305 0.210714 13.0392 0.585786 13.4143C0.960859 13.7894 1.46957 14.0001 2 14.0001H2.5C2.49952 12.9327 2.78388 11.8846 3.32373 10.9638C3.86358 10.043 4.63935 9.28298 5.571 8.76211C5.39356 8.52133 5.23604 8.26648 5.1 8.00011Z" fill="#6A0F65"/>
</svg>
